<svg id="Ebene_1" data-name="Ebene 1" xmlns="http://www.w3.org/2000/svg" viewBox="0 0 441.74 120.33"><defs><style>.cls-1{fill:#e20613;}.cls-2{fill:#b1b1b1;}</style></defs><path class="cls-1" d="M243.9,24.69H192.29a10.07,10.07,0,0,0-5.88,2.14A11,11,0,0,0,182.55,32l-24.09,72.35h21.27l11.92-35.81H229l5.23-15.71H200.58a2.59,2.59,0,0,1-2.23-1.07,3,3,0,0,1-.21-2.59L200.21,43a5.48,5.48,0,0,1,1.93-2.58,5,5,0,0,1,2.94-1.07H239Z" transform="translate(-26.52 -24.69)"/><polygon class="cls-1" points="225.71 0 244.51 0 217.99 79.66 199.19 79.66 225.71 0"/><polygon class="cls-1" points="226.49 79.66 244.49 25.58 263.95 25.58 245.94 79.66 226.49 79.66"/><polygon class="cls-1" points="248.02 14.98 267.47 14.98 272.46 0 253.01 0 248.02 14.98"/><path class="cls-1" d="M288.44,104.35a5.15,5.15,0,0,1-4.46-2.14,5.89,5.89,0,0,1-.42-5.17l13.16-39.46a11,11,0,0,1,3.87-5.17,10,10,0,0,1,5.87-2.14h49.87a5.13,5.13,0,0,1,4.46,2.14,5.89,5.89,0,0,1,.42,5.17l-8.15,24.48H316.88l3.77-11.32h12a5,5,0,0,0,2.94-1.08,5.43,5.43,0,0,0,1.93-2.58L339,62.7H315.1l-8.63,25.94a2.92,2.92,0,0,0,.21,2.58,2.54,2.54,0,0,0,2.22,1.07h41.52l-5.35,12.06Z" transform="translate(-26.52 -24.69)"/><path class="cls-1" d="M389.65,104.35H363a7.73,7.73,0,0,1-6.69-3.21,8.84,8.84,0,0,1-.63-7.75l11.93-35.81a10.92,10.92,0,0,1,3.86-5.17,10,10,0,0,1,5.88-2.14H433.8L410.93,119a11.05,11.05,0,0,1-3.86,5.17,10,10,0,0,1-5.88,2.14H340.57l11.19-12.06h38.46a5,5,0,0,0,2.94-1.07,5.5,5.5,0,0,0,1.93-2.59l15.2-45.67a2.94,2.94,0,0,0-.2-2.59,2.6,2.6,0,0,0-2.23-1.07H391.6a5,5,0,0,0-2.94,1.07,5.5,5.5,0,0,0-1.93,2.59l-8.88,26.67h16Z" transform="translate(-26.52 -24.69)"/><polygon class="cls-1" points="396.35 79.66 415.22 79.66 441.74 0 422.87 0 396.35 79.66"/><path class="cls-2" d="M396.56,134.32H229.88c-124,0-167.57-20.13-157-56.83C77.61,61,97.93,44.68,129.75,31.59,71.09,46,31,67.54,27,90.15,20,129,97.93,145,232.54,145H390.27c9.8,0,18.92-8.73,21.22-15.44A28.94,28.94,0,0,1,396.56,134.32Z" transform="translate(-26.52 -24.69)"/></svg>